<mxfile host="app.diagrams.net" modified="2024-02-21T12:52:39.468Z" agent="Mozilla/5.0 (Macintosh; Intel Mac OS X 10_15_7) AppleWebKit/537.36 (KHTML, like Gecko) Chrome/121.0.0.0 Safari/537.36" version="22.1.21" etag="lrnaurNP9t5uNq0HzA8w" type="github">
  <diagram name="Trang-1" id="mpMJyDYdaPoPcS2GBAiS">
    <mxGraphModel>
      <root>
        <mxCell id="0" />
        <mxCell id="1" parent="0" />
      </root>
    </mxGraphModel>
  </diagram>
</mxfile>
